<?xml version="1.0" encoding="UTF-8" standalone="no"?>
<!-- Created with Inkscape (http://www.inkscape.org/) -->

<svg
   xmlns:dc="http://purl.org/dc/elements/1.1/"
   xmlns:cc="http://creativecommons.org/ns#"
   xmlns:rdf="http://www.w3.org/1999/02/22-rdf-syntax-ns#"
   xmlns:svg="http://www.w3.org/2000/svg"
   xmlns="http://www.w3.org/2000/svg"
   xmlns:sodipodi="http://sodipodi.sourceforge.net/DTD/sodipodi-0.dtd"
   xmlns:inkscape="http://www.inkscape.org/namespaces/inkscape"
   width="1200mm"
   height="1200mm"
   viewBox="0 0 4251.9685 4251.9685"
   id="svg3581"
   version="1.1"
   inkscape:version="0.91 r13725"
   sodipodi:docname="chuckwagon-pin-tutone.svg">
  <defs
     id="defs3583">
    <filter
       style="color-interpolation-filters:sRGB;"
       inkscape:label="Drop Shadow"
       id="filter3493">
      <feFlood
         flood-opacity="0.498039"
         flood-color="rgb(0,0,0)"
         result="flood"
         id="feFlood3495" />
      <feComposite
         in="flood"
         in2="SourceGraphic"
         operator="in"
         result="composite1"
         id="feComposite3497" />
      <feGaussianBlur
         in="composite1"
         stdDeviation="4"
         result="blur"
         id="feGaussianBlur3499" />
      <feOffset
         dx="0"
         dy="0"
         result="offset"
         id="feOffset3501" />
      <feComposite
         in="SourceGraphic"
         in2="offset"
         operator="over"
         result="composite2"
         id="feComposite3503" />
    </filter>
  </defs>
  <sodipodi:namedview
     id="base"
     pagecolor="#ffffff"
     bordercolor="#666666"
     borderopacity="1.0"
     inkscape:pageopacity="0.0"
     inkscape:pageshadow="2"
     inkscape:zoom="0.087500001"
     inkscape:cx="632.86953"
     inkscape:cy="1736.3588"
     inkscape:document-units="px"
     inkscape:current-layer="layer1"
     showgrid="false"
     showguides="true"
     inkscape:guide-bbox="true"
     inkscape:window-width="1276"
     inkscape:window-height="755"
     inkscape:window-x="8"
     inkscape:window-y="0"
     inkscape:window-maximized="0" />
  <metadata
     id="metadata3586">
    <rdf:RDF>
      <cc:Work
         rdf:about="">
        <dc:format>image/svg+xml</dc:format>
        <dc:type
           rdf:resource="http://purl.org/dc/dcmitype/StillImage" />
        <dc:title></dc:title>
      </cc:Work>
    </rdf:RDF>
  </metadata>
  <g
     inkscape:label="Layer 1"
     inkscape:groupmode="layer"
     id="layer1"
     transform="translate(0,3199.6063)">
    <g
       id="g5335"
       transform="matrix(5.3606478,0,0,5.3606478,229.09299,-3713.3592)"
       style="filter:url(#filter3493)">
      <path
         sodipodi:nodetypes="sssssssssssssssssssscsscccsccsscscsssssssscscssssssscsssscssscsccssssssscscscccsssssscsscccsssccccccccssscssscc"
         inkscape:connector-curvature="0"
         id="path4749"
         d="M 304.58922,667.7489 C 264.7851,660.51264 233.07045,648.20116 204.7302,628.98403 146.55235,589.53444 112.18281,540.50345 94.457608,471.67097 85.633418,437.40391 86.176788,387.24006 95.767848,350.70878 127.92711,228.21773 243.60041,146.71217 367.2703,159.4031 c 115.43439,11.84581 206.90718,94.94628 228.09443,207.21746 6.51725,34.53494 4.19947,86.57866 -5.28291,118.6229 C 570.9445,549.91502 529.77784,602.09553 470.35557,637.00159 426.42256,662.80891 352.66772,676.4894 304.58922,667.7489 Z M 256.82343,506.85533 c 17.86724,-7.46541 24.69959,-24.83153 16.22047,-41.22836 -5.52837,-10.69068 -14.00638,-15.87592 -25.95757,-15.87592 -14.56216,0 -28.20062,13.63846 -28.20062,28.2006 0,11.90539 5.19377,20.39302 16.8153,27.47948 9.8944,6.03331 10.06392,6.04475 21.12242,1.4242 z m 219.21355,0 c 17.86722,-7.46541 24.69958,-24.83153 16.22045,-41.22836 -11.55031,-22.33583 -40.65835,-20.94015 -52.79599,2.53146 -6.45513,12.48284 0.0132,27.81915 15.80513,37.47443 9.50922,5.81396 9.74782,5.82799 20.77041,1.22247 z M 212.26976,476.24007 c 3.4884,-20.64772 20.09778,-33.32019 40.63727,-31.00509 15.24414,1.71821 27.88278,14.33353 30.62579,30.5692 l 1.84536,10.92264 28.59489,0 28.5949,0 0.98522,-17.8276 c 1.21082,-21.90984 0.16137,-26.32657 -4.72455,-19.88608 -1.96094,2.58477 -3.62136,3.51109 -3.68979,2.05847 -0.0684,-1.45262 -1.37587,-0.85837 -2.9054,1.32056 -2.03668,2.90141 -2.48773,-0.22449 -1.68538,-11.67977 l 1.09559,-15.6415 -6.19756,7.2051 c -3.40867,3.9628 -6.27289,6.24743 -6.36499,5.07696 -0.0922,-1.17047 -1.27051,0.62238 -2.61878,3.98409 -1.34824,3.36173 -3.64993,5.37147 -5.11483,4.46612 -3.44226,-2.12743 -3.41184,-10.84782 0.0605,-17.33588 2.50112,-4.67343 2.19087,-4.84687 -3.79327,-2.1203 -3.58448,1.63319 -8.48944,2.21263 -10.89993,1.28763 -4.02366,-1.544 -3.97686,-2.38386 0.57127,-10.25143 6.72189,-11.62783 6.30308,-18.91995 -1.14738,-19.97809 -8.18462,-1.16242 -7.43833,-5.15337 1.96415,-10.50366 4.34868,-2.47452 7.9142,-5.98477 7.92339,-7.80054 0.0264,-5.07786 5.58759,-3.93087 12.80703,2.64113 l 6.52797,5.94253 -6.16719,-11.19523 c -7.00633,-12.71852 -5.71981,-16.17094 4.32115,-11.59597 5.98495,2.72692 6.71295,2.5917 5.33796,-0.99151 -2.58477,-6.73577 6.04112,-8.05259 10.55299,-1.61101 4.77339,6.81494 8.89481,5.04746 8.89481,-3.81455 0,-4.02859 1.5172,-6.44694 4.04457,-6.44694 4.18112,0 4.92158,1.35679 7.75802,14.21569 l 1.67926,7.61288 5.24704,-5.63204 c 6.04237,-6.48575 15.60576,-7.50935 15.60576,-1.67034 0,2.17893 2.30687,3.9617 5.12638,3.9617 7.77574,0 8.87593,4.4247 2.25351,9.06323 l -5.91409,4.1424 6.60282,0 c 7.8306,0 18.34265,6.75307 18.34265,11.78352 0,2.62811 -2.93965,3.22682 -11.22479,2.28611 l -11.22479,-1.2745 6.60282,5.42878 c 3.63155,2.98582 7.47003,5.45519 8.53,5.4875 2.80471,0.0856 12.65902,20.24738 10.80313,22.10324 -0.86325,0.86328 -4.85846,-0.77231 -8.8782,-3.63466 -8.21644,-5.8506 -19.05951,-7.47009 -13.62428,-2.03486 1.74314,1.74315 3.13156,7.38855 3.08536,12.54535 -0.0774,8.64542 -0.37467,8.99225 -3.81405,4.45115 -4.53085,-5.98215 -17.23098,-12.91699 -17.23098,-9.40888 0,1.38619 1.41359,4.78384 3.14131,7.55034 2.25341,3.60829 2.36663,6.7661 0.40058,11.17218 l -2.7407,6.14215 -4.43012,-8.56689 c -4.46662,-8.63751 -9.48896,-11.36939 -9.68005,-5.26545 -0.0568,1.81577 -0.79318,12.51234 -1.63625,23.77014 l -1.53291,20.46873 36.99754,0 36.99754,0 1.85681,-9.90422 c 3.96016,-21.12347 17.39391,-32.35381 38.70168,-32.35381 14.09701,0 27.07506,12.34199 31.51364,29.96913 2.74555,10.90369 3.91494,12.2889 10.37405,12.2889 21.71865,0 30.51323,-6.27793 23.6144,-16.85691 -2.17626,-3.33717 -4.2084,-16.24422 -5.0388,-32.00394 l -1.39166,-26.41127 -15.23801,-7.92338 c -16.95181,-8.81452 -17.11355,-9.14949 -31.56342,-65.36789 l -5.93995,-23.10986 -156.18177,0 -156.18179,0 -1.63707,9.90422 c -0.90039,5.44733 -1.65015,38.49837 -1.66614,73.44676 -0.0238,51.74869 -0.74878,64.49411 -3.90676,68.6693 -2.13273,2.81972 -3.91549,8.39517 -3.96169,12.38988 -2.21534,13.81072 16.65294,7.26309 28.73624,7.26309 l 28.82025,0 1.77173,-10.48675 z m 18.23691,-88.2914 c -6.6462,-6.64621 -8.97727,-11.27914 -8.96996,-17.8276 l 0.01,-8.84778 5.2736,8.6495 c 9.40427,15.42443 26.316,16.52218 35.62651,2.31256 5.66771,-8.65002 2.86521,-18.61599 -7.542,-26.82017 l -8.28705,-6.53289 8.38103,-0.0293 c 10.72056,-0.0374 23.43052,10.46503 25.56199,21.1224 2.26283,11.31416 -5.10163,28.32029 -14.33078,33.09289 -13.13605,6.7929 -25.59631,5.00718 -35.72311,-5.11962 z"
         style="fill:#f06044;fill-opacity:1" />
      <path
         sodipodi:nodetypes="ssssssssssssscssssssssssss"
         style="fill:#19579a;fill-opacity:1"
         d="M 263.91369,785.62622 C 165.61353,684.78083 148.62884,666.29717 118.10135,626.94514 90.319888,591.13291 76.275408,567.30556 60.359222,528.98191 c -31.92255,-76.86448 -31.72119,-148.57227 0.64328,-229.08832 15.652186,-38.93937 34.189706,-66.89223 65.367018,-98.56738 43.57153,-44.26727 92.84724,-71.74516 153.57029,-85.63625 32.04707,-7.33113 90.81344,-7.82393 122.43068,-1.02667 44.48775,9.56423 87.44848,28.24439 119.38932,51.91276 22.45587,16.63995 62.17646,57.59272 76.48001,78.85251 22.93885,34.0947 38.83266,77.72722 45.08207,123.76172 4.64522,34.21777 2.06721,90.56389 -5.46494,119.44348 -6.58994,25.26697 -25.09185,72.74596 -36.98305,94.90454 -21.54293,40.1441 -75.61203,102.60599 -193.22403,223.21693 l -61.58202,63.15228 z m 114.07815,-93.71654 c 64.8857,-9.02476 122.52148,-38.75304 169.14788,-87.24572 C 631.3992,517.03189 647.79839,381.83131 586.99008,276.12345 547.73984,207.89167 485.31532,160.58886 408.96074,141.21993 c -21.25109,-5.39078 -31.49784,-6.38957 -65.15536,-6.35092 -54.25373,0.0623 -78.24874,5.39415 -124.45461,27.65468 -72.89003,35.11611 -126.993772,101.05603 -149.802362,182.57434 -5.03091,17.9806 -5.83596,27.49488 -5.89634,69.68458 -0.0619,43.22569 0.63052,51.29769 6.0035,69.98987 26.16306,91.01931 93.754592,163.33783 181.388732,194.07403 40.58369,14.23406 85.38409,18.84412 126.94754,13.06317 z"
         id="path4785"
         inkscape:connector-curvature="0" />
    </g>
  </g>
</svg>
