<?xml version="1.0" encoding="UTF-8" standalone="no"?>
<!-- Created with Inkscape (http://www.inkscape.org/) -->

<svg
   xmlns:dc="http://purl.org/dc/elements/1.1/"
   xmlns:cc="http://creativecommons.org/ns#"
   xmlns:rdf="http://www.w3.org/1999/02/22-rdf-syntax-ns#"
   xmlns:svg="http://www.w3.org/2000/svg"
   xmlns="http://www.w3.org/2000/svg"
   xmlns:sodipodi="http://sodipodi.sourceforge.net/DTD/sodipodi-0.dtd"
   xmlns:inkscape="http://www.inkscape.org/namespaces/inkscape"
   width="210mm"
   height="297mm"
   viewBox="0 0 744.09448819 1052.3622047"
   id="svg3470"
   version="1.1"
   inkscape:version="0.91 r13725"
   sodipodi:docname="logo-circle-master.svg">
  <defs
     id="defs3472" />
  <sodipodi:namedview
     id="base"
     pagecolor="#ffffff"
     bordercolor="#666666"
     borderopacity="1.0"
     inkscape:pageopacity="0.0"
     inkscape:pageshadow="2"
     inkscape:zoom="0.7"
     inkscape:cx="427.77256"
     inkscape:cy="582.64553"
     inkscape:document-units="px"
     inkscape:current-layer="layer1"
     showgrid="false"
     showguides="true"
     inkscape:guide-bbox="true"
     inkscape:window-width="1276"
     inkscape:window-height="755"
     inkscape:window-x="276"
     inkscape:window-y="0"
     inkscape:window-maximized="0">
    <sodipodi:guide
       position="202.85714,647.14287"
       orientation="1,0"
       id="guide4942" />
  </sodipodi:namedview>
  <metadata
     id="metadata3475">
    <rdf:RDF>
      <cc:Work
         rdf:about="">
        <dc:format>image/svg+xml</dc:format>
        <dc:type
           rdf:resource="http://purl.org/dc/dcmitype/StillImage" />
        <dc:title></dc:title>
      </cc:Work>
    </rdf:RDF>
  </metadata>
  <g
     inkscape:label="Layer 1"
     inkscape:groupmode="layer"
     id="layer1">
    <path
       style="fill:#ffffff;fill-opacity:1;fill-rule:evenodd;stroke:none;stroke-width:1px;stroke-linecap:butt;stroke-linejoin:miter;stroke-opacity:1"
       d="m 126.42857,488.79078 -58.571431,41.42857 -19.28571,65 20.71429,66.42857 57.142851,42.14286 74.28572,0 58.57143,-48.57143 15,-75 -37.85715,-69.28572 -55.71428,-27.14285 z"
       id="path4951"
       inkscape:connector-curvature="0" />
    <path
       style="fill:#19579a;fill-opacity:1"
       d="M 167.07812 161.79297 C 137.10088 161.65397 107.39962 173.24531 84.625 195.89062 C 69.35221 211.07672 59.214235 229.13086 53.765625 250.8418 C 51.422375 260.17891 51.125936 263.24162 51.128906 278.19922 C 51.131906 293.35651 51.403998 296.06832 53.830078 305.27539 C 55.312918 310.90286 57.844658 318.60423 59.455078 322.38867 C 75.530168 360.16457 109.81797 386.59461 150.50195 392.57031 C 158.47504 393.74142 173.74319 393.75769 181.84766 392.60547 C 207.90265 388.90112 229.96304 377.89854 248.42969 359.39453 C 286.76994 320.97671 293.33436 262.10656 264.45703 215.64648 C 257.4083 204.30592 242.01732 188.61847 230.56055 181.09766 C 210.97743 168.24234 188.95341 161.89635 167.07812 161.79492 L 167.07812 161.79297 z M 165.5 171.47461 C 179.18394 171.41231 186.85799 172.52013 198.5957 176.25586 C 236.28058 188.2497 264.70361 221.20242 271.03516 260.24023 C 280.47461 318.44009 240.99566 372.67755 182.25977 382.20312 C 129.21596 390.80556 77.928717 357.04426 63.398438 303.96094 C 60.320127 292.71494 59.570796 269.37237 61.916016 257.77344 C 69.437216 220.57543 93.663786 191.64225 128.54688 178.19141 C 141.09094 173.35445 151.07439 171.5403 165.5 171.47461 z M 165.31055 180.04883 C 153.15197 180.13363 141.10641 182.60526 128.91406 187.47852 C 105.22753 196.94598 84.117851 218.77625 75.337891 242.88281 C 71.607311 253.12564 70.605953 257.52764 69.439453 268.80273 C 66.757033 294.73019 76.476863 323.35444 94.564453 342.80078 C 109.25663 358.59663 128.04572 369.28592 147.16992 372.72461 C 150.43968 373.31254 154.2294 373.98944 155.5918 374.23242 C 161.03283 375.20278 181.175 373.78409 188.78516 371.89453 C 203.64134 368.20582 212.9095 363.7718 225.69141 354.23242 C 250.90317 335.41639 265.09359 304.31844 263.29102 271.83398 C 261.02331 230.96741 232.96363 195.4636 194.01172 184.17578 C 184.29278 181.35934 174.76724 179.98288 165.31055 180.04883 z M 97.626953 239.55664 L 157.05078 239.55664 L 216.47266 239.55664 L 217.19531 243.51953 C 217.59211 245.69937 219.44129 252.60698 221.30469 258.86914 L 224.69141 270.25586 L 230.51758 273.23633 L 236.34375 276.21875 L 236.66797 286.56836 C 236.91249 294.40421 237.35654 297.18433 238.49609 298.01758 C 239.34438 298.63787 239.85281 300.1762 239.66016 301.54102 C 239.34533 303.77144 238.83545 303.98447 233.21875 304.25391 L 227.12109 304.54492 L 226.40234 300.29492 C 225.89235 297.27644 224.60366 294.95913 221.96484 292.32031 C 218.6844 289.03987 217.67894 288.60444 213.42383 288.60742 C 205.23143 288.61342 199.1875 294.05971 199.1875 301.43555 C 199.1875 303.09748 198.85403 304.48863 198.44531 304.52539 C 194.4518 304.88474 188.40162 304.91578 167.72852 304.6875 L 143.70117 304.42188 L 143.70117 301.86328 C 143.70117 297.89131 140.7027 292.52137 137.33984 290.4707 C 128.80181 285.26422 117.55002 290.64502 116.21875 300.57031 L 115.69727 304.45703 L 104.92969 304.45703 L 94.160156 304.45703 L 94.160156 300.98828 C 94.160156 298.58192 94.609949 297.52148 95.630859 297.52148 C 96.892499 297.52148 97.138051 293.39126 97.363281 268.53906 L 97.626953 239.55664 z M 212.15234 290.58594 C 224.27514 290.58594 228.46517 307.37753 217.48633 311.96484 C 212.98741 313.8446 211.1955 313.74054 207.30273 311.36719 C 203.41099 308.99446 200.79671 303.45266 201.67773 299.44141 C 202.5356 295.53554 208.39094 290.58594 212.15234 290.58594 z M 129.83008 291.08008 C 134.3571 291.08008 135.27987 291.45349 137.83789 294.31641 C 143.11992 300.22803 141.30642 309.01935 134.19141 311.99219 C 129.76596 313.84126 127.95313 313.73341 124.10742 311.38867 C 118.15627 307.76027 117.06925 299.63596 121.82227 294.31641 C 124.38029 291.45349 125.30305 291.08008 129.83008 291.08008 z "
       id="path4201" />
    <path
       inkscape:connector-curvature="0"
       id="path4205"
       d="m 162.70951,312.77212 -2.14063,-0.12921 1.12332,-1.4849 c 0.61782,-0.81671 1.53633,-1.93565 2.04116,-2.48653 0.50481,-0.55089 1.1218,-1.63591 1.37108,-2.41116 0.24929,-0.77526 0.617,-1.61674 0.81714,-1.86996 0.20014,-0.25322 0.28686,-3.011 0.19269,-6.1284 -0.10917,-3.61448 -0.0261,-5.66799 0.22953,-5.66799 0.2247,0 0.27276,-0.3089 0.10941,-0.70325 -0.16021,-0.3868 -0.34623,-1.12612 -0.41336,-1.64294 -0.0672,-0.51682 -0.23648,-1.0541 -0.37634,-1.19395 -0.35853,-0.35853 -1.00079,0.76606 -1.00814,1.76526 -0.009,1.30311 -0.4666,1.45807 -1.48331,0.50292 l -0.93401,-0.87745 -0.0476,0.97424 c -0.0263,0.53583 -0.0182,1.20028 0.0176,1.47656 0.1653,1.27289 -0.68848,0.29786 -1.34998,-1.54173 -0.6399,-1.77953 -0.66777,-2.24783 -0.21534,-3.61874 0.28584,-0.86608 0.41382,-1.68057 0.28444,-1.80997 -0.1294,-0.12939 0.0242,-0.97048 0.34117,-1.86906 0.31704,-0.89859 0.49978,-1.71047 0.40608,-1.80416 -0.46867,-0.46867 -2.43785,1.47201 -3.13088,3.08557 -0.70703,1.64613 -0.83894,1.76037 -1.30295,1.12831 -0.75449,-1.02777 -1.02968,-0.86775 -1.03662,0.60279 -0.007,1.60135 -0.35398,2.18791 -1.40036,2.371 -0.44205,0.0774 -0.92664,0.41189 -1.07687,0.74342 -0.15838,0.34954 -0.28502,-0.0303 -0.30139,-0.90418 -0.0156,-0.82884 -0.20565,-1.50698 -0.42246,-1.50698 -0.77897,0 -0.9345,-2.01091 -0.21686,-2.80391 0.37941,-0.41921 0.56243,-0.96828 0.40676,-1.22016 -0.15567,-0.25189 0.0979,-0.81283 0.56343,-1.24656 0.46555,-0.43374 0.84646,-0.95672 0.84646,-1.1622 0,-0.56164 -1.27334,-0.002 -2.43903,1.07223 -0.56789,0.52326 -1.15747,0.82641 -1.31021,0.67368 -0.15273,-0.15272 -0.54132,0.0708 -0.86354,0.49671 -0.56842,0.75134 -0.58624,0.74704 -0.59864,-0.14393 -0.0109,-0.7823 -0.12793,-0.85671 -0.79009,-0.50234 -1.12078,0.59982 -1.35272,0.51921 -1.11556,-0.38773 0.11559,-0.44205 0.0341,-0.80372 -0.18114,-0.80372 -0.50548,0 -0.0184,-1.60524 0.75439,-2.48631 0.32704,-0.37287 0.49611,-0.83735 0.37568,-1.03219 -0.12041,-0.19484 0.49481,-0.9707 1.36716,-1.72415 1.76476,-1.5242 1.98187,-2.02093 0.78237,-1.78993 -1.00898,0.19432 -1.00539,0.005 0.0274,-1.44494 0.64966,-0.91237 0.70291,-1.16716 0.24392,-1.16716 -0.32294,0 -0.69657,-0.28514 -0.83031,-0.63364 -0.17351,-0.45217 -0.67502,-0.60169 -1.75091,-0.52202 -1.10818,0.082 -1.47513,-0.0343 -1.38462,-0.43903 0.1014,-0.45342 0.0127,-0.45901 -0.50232,-0.0315 -0.53214,0.44163 -0.62547,0.39369 -0.62547,-0.32123 0,-0.61663 -0.1872,-0.78145 -0.70326,-0.6192 -0.60048,0.18881 -0.58925,0.12824 0.0769,-0.41446 0.42903,-0.34958 1.06197,-0.63675 1.40651,-0.63815 0.34455,-0.002 0.93452,-0.54391 1.31102,-1.20558 0.62315,-1.09512 0.87279,-1.20305 2.78262,-1.20305 l 2.09806,0 -0.90401,-0.96225 c -0.61939,-0.65932 -0.75933,-1.05166 -0.44452,-1.24624 0.25273,-0.15619 0.36242,-0.53694 0.24378,-0.84612 -0.16434,-0.42824 0.18807,-0.55829 1.47958,-0.54598 1.59592,0.0152 1.79976,0.15617 3.47698,2.40438 0.97993,1.31353 1.84257,2.32733 1.91698,2.25293 0.3776,-0.37761 -2.30279,-5.7251 -3.0433,-6.0715 -1.00131,-0.46842 -1.43497,-1.39892 -0.90087,-1.93303 0.211,-0.211 0.30522,-0.58765 0.2094,-0.83699 -0.15709,-0.40871 0.43847,-0.45919 3.32064,-0.28149 0.25932,0.0161 1.00878,0.48115 1.66546,1.03371 1.6588,1.39581 1.82929,1.26385 0.8492,-0.6573 -0.6372,-1.24901 -0.72628,-1.7371 -0.35855,-1.96439 0.2804,-0.17329 0.35341,-0.52234 0.17099,-0.81749 -0.22792,-0.36879 -0.12841,-0.43862 0.35037,-0.24586 0.36779,0.14807 0.93997,0.37899 1.27151,0.51314 0.33154,0.13416 0.60279,0.0437 0.60279,-0.20092 0,-1.01995 0.85597,-0.33057 1.45809,1.17431 0.35634,0.89055 0.9878,1.8011 1.40327,2.02345 0.41548,0.22235 0.75539,0.66917 0.75539,0.99293 0,0.32376 0.16073,0.58865 0.35715,0.58865 0.473,0 1.02891,-2.56763 1.04029,-4.80472 0.007,-1.48988 0.1736,-1.87374 0.98829,-2.28469 1.20457,-0.60763 2.43663,-0.0637 2.43663,1.07562 0,0.43428 0.22605,0.74437 0.50231,0.68912 0.34978,-0.07 0.50473,0.53656 0.5102,1.99708 0.004,1.15366 0.22191,2.3116 0.48352,2.57321 0.3294,0.32939 0.35352,0.70385 0.0785,1.21781 -0.59507,1.11191 0.59176,0.96953 1.35059,-0.16204 1.34675,-2.00828 3.00016,-3.31539 4.15742,-3.28668 0.93411,0.0232 2.92034,0.6889 3.72422,1.24824 0.0865,0.0601 -0.25867,0.44642 -0.76718,0.85819 -1.18451,0.95915 -0.75577,1.90398 0.53028,1.16863 1.09962,-0.62873 2.92714,-0.60464 2.79208,0.0369 -0.0553,0.26242 0.25054,0.47714 0.67954,0.47714 0.429,0 0.88276,0.16625 1.00834,0.36946 0.24387,0.39456 -0.81025,1.63984 -1.38811,1.63984 -0.19034,0 -0.45469,0.34222 -0.58745,0.76051 -0.13275,0.41827 -0.78367,0.98512 -1.44649,1.25967 -1.51852,0.62901 -1.29009,0.96786 0.25615,0.37998 0.9081,-0.34526 1.52259,-0.28799 2.96922,0.2767 1.83652,0.7169 2.09369,0.79777 2.82882,0.88966 0.22102,0.0277 0.40186,0.3215 0.40186,0.65303 0,0.33153 0.24931,0.60279 0.55403,0.60279 0.52083,0 1.06858,1.02995 1.65634,3.11444 0.30714,1.08924 -0.39369,1.16144 -2.81318,0.2898 -1.70837,-0.61547 -3.44285,-0.73453 -4.9228,-0.33792 -1.22409,0.32805 -1.13849,0.80916 0.20094,1.12933 1.88513,0.45059 6.05604,3.49676 6.3347,4.62647 0.13885,0.56292 0.79768,1.87727 1.46405,2.92077 0.95074,1.48878 1.15405,2.15935 0.94428,3.11444 -0.14703,0.66943 -0.35864,1.21715 -0.47027,1.21715 -0.11162,0 -1.24453,-0.81832 -2.51756,-1.81848 -2.28166,-1.79258 -4.14409,-2.602 -5.98697,-2.602 -0.57366,0 -0.87503,0.19588 -0.77289,0.50231 0.0922,0.27629 0.36335,0.50234 0.6028,0.50234 0.60044,0 1.03396,0.48927 1.1645,1.31424 0.0605,0.38228 0.29589,1.68968 0.52312,2.90531 0.22722,1.21563 0.29734,2.83676 0.15581,3.60252 -0.25457,1.37738 -0.26365,1.38276 -0.84823,0.50233 -0.32499,-0.48948 -0.82077,-0.88995 -1.10169,-0.88995 -0.57046,0 -0.99864,-0.87562 -0.99864,-2.04219 0,-0.501 -0.27924,-0.77085 -0.79768,-0.77085 -0.43872,0 -1.67939,-0.54251 -2.75701,-1.20558 -2.01812,-1.24176 -3.00035,-1.57197 -2.15175,-0.72336 0.26524,0.26524 0.48224,0.78569 0.48224,1.15657 0,0.37088 0.35165,0.92243 0.78143,1.22569 1.0831,0.76417 1.38034,3.97173 0.55842,6.02591 -0.34286,0.8569 -0.76846,1.55801 -0.94576,1.55801 -0.17731,0 -0.71713,-0.76857 -1.19958,-1.70792 -1.36608,-2.65979 -1.73881,-3.23786 -2.8277,-4.3854 l -1.01535,-1.07003 -0.51896,1.66276 c -0.36218,1.1605 -0.38767,1.70652 -0.0844,1.80762 0.23899,0.0797 0.32406,0.32362 0.18902,0.54212 -0.13504,0.2185 -0.28449,0.88119 -0.33211,1.47266 -0.0476,0.59147 -0.22171,1.48228 -0.38686,1.97958 -0.19269,0.58024 -0.13809,0.90418 0.1524,0.90418 0.24896,0 0.35033,0.16557 0.22527,0.36794 -0.19826,0.32078 -0.68512,5.59136 -0.67132,7.26744 0.031,3.76114 0.22935,4.69768 1.27991,6.04239 0.61057,0.78155 1.23613,2.09263 1.39013,2.91351 0.24004,1.27955 0.17326,1.49906 -0.46798,1.53845 -2.08813,0.12823 -8.64392,0.1526 -10.524,0.0391 z m -34.69055,-42.03455 c -3.17935,-0.85638 -6.09013,-3.18693 -7.49588,-6.00169 -0.87063,-1.74323 -1.52746,-7.10389 -0.87044,-7.10389 0.1783,0 0.58512,-0.10015 0.90404,-0.2225 0.42985,-0.16496 0.63801,0.21115 0.80472,1.45396 0.42819,3.19251 3.50897,6.03734 6.83693,6.31332 2.97617,0.24681 5.78214,-1.37288 7.65072,-4.41621 1.11079,-1.80916 0.68722,-5.15614 -0.9376,-7.40878 -0.78418,-1.08714 -4.15127,-3.35516 -4.9811,-3.35516 -0.37707,0 -0.64496,-0.33385 -0.64496,-0.80372 0,-1.84111 7.2378,-0.50256 9.98153,1.84597 3.41932,2.9268 4.44758,8.59172 2.3795,13.10902 -2.58261,5.64115 -7.79371,8.16103 -13.62746,6.58968 z"
       style="fill:#19579a;fill-opacity:1" />
    <g
       id="g4218"
       transform="translate(-21.013621,200.69992)" />
    <path
       id="path4925"
       d="M 167.07812 161.79297 C 137.10088 161.65397 107.39962 173.24531 84.625 195.89062 C 69.35221 211.07672 59.214235 229.13086 53.765625 250.8418 C 51.422375 260.17891 51.125936 263.24162 51.128906 278.19922 C 51.131906 293.35651 51.403998 296.06832 53.830078 305.27539 C 55.312918 310.90286 57.844658 318.60423 59.455078 322.38867 C 75.530168 360.16457 109.81797 386.59461 150.50195 392.57031 C 158.47504 393.74142 173.74319 393.75769 181.84766 392.60547 C 207.90265 388.90112 229.96304 377.89854 248.42969 359.39453 C 286.76994 320.97671 293.33436 262.10656 264.45703 215.64648 C 257.4083 204.30592 242.01732 188.61847 230.56055 181.09766 C 210.97743 168.24234 188.95341 161.89635 167.07812 161.79492 L 167.07812 161.79297 z M 165.5 171.47461 C 179.18394 171.41231 186.85799 172.52013 198.5957 176.25586 C 236.28058 188.2497 264.70361 221.20242 271.03516 260.24023 C 280.47461 318.44009 240.99566 372.67755 182.25977 382.20312 C 129.21596 390.80556 77.928717 357.04426 63.398438 303.96094 C 60.320127 292.71494 59.570796 269.37237 61.916016 257.77344 C 69.437216 220.57543 93.663786 191.64225 128.54688 178.19141 C 141.09094 173.35445 151.07439 171.5403 165.5 171.47461 z M 165.31055 180.04883 C 153.15197 180.13363 141.10641 182.60526 128.91406 187.47852 C 105.22753 196.94598 84.117851 218.77625 75.337891 242.88281 C 71.607311 253.12564 70.605953 257.52764 69.439453 268.80273 C 66.757033 294.73019 76.476863 323.35444 94.564453 342.80078 C 109.25663 358.59663 128.04572 369.28592 147.16992 372.72461 C 150.43968 373.31254 154.2294 373.98944 155.5918 374.23242 C 161.03283 375.20278 181.175 373.78409 188.78516 371.89453 C 203.64134 368.20582 212.9095 363.7718 225.69141 354.23242 C 250.90317 335.41639 265.09359 304.31844 263.29102 271.83398 C 261.02331 230.96741 232.96363 195.4636 194.01172 184.17578 C 184.29278 181.35934 174.76724 179.98288 165.31055 180.04883 z M 97.626953 239.55664 L 157.05078 239.55664 L 216.47266 239.55664 L 217.19531 243.51953 C 217.59211 245.69937 219.44129 252.60698 221.30469 258.86914 L 224.69141 270.25586 L 230.51758 273.23633 L 236.34375 276.21875 L 236.66797 286.56836 C 236.91249 294.40421 237.35654 297.18433 238.49609 298.01758 C 239.34438 298.63787 239.85281 300.1762 239.66016 301.54102 C 239.34533 303.77144 238.83545 303.98447 233.21875 304.25391 L 227.12109 304.54492 L 226.40234 300.29492 C 225.89235 297.27644 224.60366 294.95913 221.96484 292.32031 C 218.6844 289.03987 217.67894 288.60444 213.42383 288.60742 C 205.23143 288.61342 199.1875 294.05971 199.1875 301.43555 C 199.1875 303.09748 198.85403 304.48863 198.44531 304.52539 C 194.4518 304.88474 188.40162 304.91578 167.72852 304.6875 L 143.70117 304.42188 L 143.70117 301.86328 C 143.70117 297.89131 140.7027 292.52137 137.33984 290.4707 C 128.80181 285.26422 117.55002 290.64502 116.21875 300.57031 L 115.69727 304.45703 L 104.92969 304.45703 L 94.160156 304.45703 L 94.160156 300.98828 C 94.160156 298.58192 94.609949 297.52148 95.630859 297.52148 C 96.892499 297.52148 97.138051 293.39126 97.363281 268.53906 L 97.626953 239.55664 z M 212.15234 290.58594 C 224.27514 290.58594 228.46517 307.37753 217.48633 311.96484 C 212.98741 313.8446 211.1955 313.74054 207.30273 311.36719 C 203.41099 308.99446 200.79671 303.45266 201.67773 299.44141 C 202.5356 295.53554 208.39094 290.58594 212.15234 290.58594 z M 129.83008 291.08008 C 134.3571 291.08008 135.27987 291.45349 137.83789 294.31641 C 143.11992 300.22803 141.30642 309.01935 134.19141 311.99219 C 129.76596 313.84126 127.95313 313.73341 124.10742 311.38867 C 118.15627 307.76027 117.06925 299.63596 121.82227 294.31641 C 124.38029 291.45349 125.30305 291.08008 129.83008 291.08008 z "
       style="fill:#19579a;fill-opacity:1" />
    <path
       style="fill:#19579a;fill-opacity:1"
       d="M 167.07812 161.79297 C 137.10088 161.65397 107.39962 173.24531 84.625 195.89062 C 69.35221 211.07672 59.214235 229.13086 53.765625 250.8418 C 51.422375 260.17891 51.125936 263.24162 51.128906 278.19922 C 51.131906 293.35651 51.403998 296.06832 53.830078 305.27539 C 55.312918 310.90286 57.844658 318.60423 59.455078 322.38867 C 75.530168 360.16457 109.81797 386.59461 150.50195 392.57031 C 158.47504 393.74142 173.74319 393.75769 181.84766 392.60547 C 207.90265 388.90112 229.96304 377.89854 248.42969 359.39453 C 286.76994 320.97671 293.33436 262.10656 264.45703 215.64648 C 257.4083 204.30592 242.01732 188.61847 230.56055 181.09766 C 210.97743 168.24234 188.95341 161.89635 167.07812 161.79492 L 167.07812 161.79297 z M 165.5 171.47461 C 179.18394 171.41231 186.85799 172.52013 198.5957 176.25586 C 236.28058 188.2497 264.70361 221.20242 271.03516 260.24023 C 280.47461 318.44009 240.99566 372.67755 182.25977 382.20312 C 129.21596 390.80556 77.928717 357.04426 63.398438 303.96094 C 60.320127 292.71494 59.570796 269.37237 61.916016 257.77344 C 69.437216 220.57543 93.663786 191.64225 128.54688 178.19141 C 141.09094 173.35445 151.07439 171.5403 165.5 171.47461 z M 165.31055 180.04883 C 153.15197 180.13363 141.10641 182.60526 128.91406 187.47852 C 105.22753 196.94598 84.117851 218.77625 75.337891 242.88281 C 71.607311 253.12564 70.605953 257.52764 69.439453 268.80273 C 66.757033 294.73019 76.476863 323.35444 94.564453 342.80078 C 109.25663 358.59663 128.04572 369.28592 147.16992 372.72461 C 150.43968 373.31254 154.2294 373.98944 155.5918 374.23242 C 161.03283 375.20278 181.175 373.78409 188.78516 371.89453 C 203.64134 368.20582 212.9095 363.7718 225.69141 354.23242 C 250.90317 335.41639 265.09359 304.31844 263.29102 271.83398 C 261.02331 230.96741 232.96363 195.4636 194.01172 184.17578 C 184.29278 181.35934 174.76724 179.98288 165.31055 180.04883 z M 97.626953 239.55664 L 157.05078 239.55664 L 216.47266 239.55664 L 217.19531 243.51953 C 217.59211 245.69937 219.44129 252.60698 221.30469 258.86914 L 224.69141 270.25586 L 230.51758 273.23633 L 236.34375 276.21875 L 236.66797 286.56836 C 236.91249 294.40421 237.35654 297.18433 238.49609 298.01758 C 239.34438 298.63787 239.85281 300.1762 239.66016 301.54102 C 239.34533 303.77144 238.83545 303.98447 233.21875 304.25391 L 227.12109 304.54492 L 226.40234 300.29492 C 225.89235 297.27644 224.60366 294.95913 221.96484 292.32031 C 218.6844 289.03987 217.67894 288.60444 213.42383 288.60742 C 205.23143 288.61342 199.1875 294.05971 199.1875 301.43555 C 199.1875 303.09748 198.85403 304.48863 198.44531 304.52539 C 194.4518 304.88474 188.40162 304.91578 167.72852 304.6875 L 143.70117 304.42188 L 143.70117 301.86328 C 143.70117 297.89131 140.7027 292.52137 137.33984 290.4707 C 128.80181 285.26422 117.55002 290.64502 116.21875 300.57031 L 115.69727 304.45703 L 104.92969 304.45703 L 94.160156 304.45703 L 94.160156 300.98828 C 94.160156 298.58192 94.609949 297.52148 95.630859 297.52148 C 96.892499 297.52148 97.138051 293.39126 97.363281 268.53906 L 97.626953 239.55664 z M 212.15234 290.58594 C 224.27514 290.58594 228.46517 307.37753 217.48633 311.96484 C 212.98741 313.8446 211.1955 313.74054 207.30273 311.36719 C 203.41099 308.99446 200.79671 303.45266 201.67773 299.44141 C 202.5356 295.53554 208.39094 290.58594 212.15234 290.58594 z M 129.83008 291.08008 C 134.3571 291.08008 135.27987 291.45349 137.83789 294.31641 C 143.11992 300.22803 141.30642 309.01935 134.19141 311.99219 C 129.76596 313.84126 127.95313 313.73341 124.10742 311.38867 C 118.15627 307.76027 117.06925 299.63596 121.82227 294.31641 C 124.38029 291.45349 125.30305 291.08008 129.83008 291.08008 z "
       id="path4944" />
    <g
       id="g4953"
       transform="translate(121.78571,41.785714)">
      <path
         sodipodi:nodetypes="csssssssssscccssssssss"
         style="fill:#19579a;fill-opacity:1"
         d="m 203.94869,426.95801 c -29.97724,-0.139 -59.6785,11.45234 -82.45312,34.09765 -15.27279,15.1861 -25.410764,33.24024 -30.859374,54.95118 -2.34325,9.33711 -2.63969,12.39982 -2.63672,27.35742 0.003,15.15729 0.27509,17.8691 2.70117,27.07617 1.48284,5.62747 4.01458,13.32884 5.625,17.11328 16.075094,37.7759 50.362894,64.20594 91.046874,70.18164 7.97309,1.17111 23.24124,1.18738 31.34571,0.0352 26.05499,-3.70435 48.11538,-14.70693 66.58203,-33.21094 38.34025,-38.41782 44.90467,-97.28797 16.02734,-143.74805 -7.04873,-11.3406 -22.43971,-27.02805 -33.89648,-34.54886 -19.58312,-12.85532 -41.60714,-19.20131 -63.48243,-19.30274 l 0,-0.002 z m -1.57812,9.68164 c 13.68394,-0.0623 21.35799,1.04552 33.0957,4.78125 37.68488,11.99384 66.10791,44.94656 72.43946,83.98437 9.43945,58.19986 -30.0395,112.43732 -88.77539,121.96289 -53.04381,8.60244 -104.33105,-25.15886 -118.86133,-78.24218 -3.078314,-11.246 -3.827644,-34.58857 -1.482424,-46.1875 7.521204,-37.19801 31.747774,-66.13119 66.630864,-79.58203 12.54406,-4.83696 22.52751,-6.65111 36.95312,-6.7168 z"
         id="path4933"
         inkscape:connector-curvature="0" />
      <path
         sodipodi:nodetypes="ccsssssssssssscccccccccsscccscsccccsscscccsssscssssssssscscsssssscssssscssssscsccsccsccccsscssscsccccssccsccssccccsscccscsccscsscsssscsscssccscccccsccccscccsccccsscccssccccssccssscssccscsssssssssssssss"
         inkscape:connector-curvature="0"
         id="path4946"
         d="m 203.50586,426.79352 c -302.33724,566.56959 -151.16862,283.2848 0,0 z m -1.76758,18.25586 c -12.15858,0.0848 -24.20413,2.55643 -36.39648,7.42969 -23.68653,9.46746 -44.79621,31.29774 -53.57618,55.4043 -3.73057,10.24283 -4.73193,14.64483 -5.89843,25.91992 -2.68242,25.92746 7.03741,54.5517 25.125,73.99804 14.69218,15.79585 33.48127,26.48514 52.60547,29.92383 3.26976,0.58793 7.05947,1.26484 8.42187,1.50782 5.44103,0.97036 25.5832,-0.44833 33.19336,-2.33789 14.85618,-3.68872 24.12434,-8.12273 36.90625,-17.66211 25.21176,-18.81603 39.40218,-49.91398 37.59961,-82.39844 -2.26771,-40.86657 -30.32739,-76.37039 -69.2793,-87.65821 -9.71894,-2.81644 -19.24448,-4.1929 -28.70117,-4.12695 z m -67.68359,59.50781 59.42383,0 59.42187,0 0.72266,3.9629 c 0.3968,2.17984 2.24597,9.08744 4.10937,15.3496 l 3.38672,11.38672 5.82617,2.98047 5.82617,2.98242 0.32422,10.34961 c 0.24452,7.83585 0.68858,10.61597 1.82813,11.44922 0.84829,0.62029 1.35671,2.15862 1.16406,3.52344 -0.31483,2.23042 -0.82471,2.44345 -6.44141,2.71289 l -6.09765,0.29102 -0.71875,-4.25 c -0.50999,-3.01848 -1.79868,-5.33579 -4.4375,-7.97461 -3.28044,-3.28044 -4.28591,-3.71587 -8.54102,-3.71289 -8.1924,0.006 -14.23633,5.45228 -14.23633,12.82812 0,1.66193 -0.33346,3.05308 -0.74218,3.08984 -3.73309,0.33592 -9.74385,0.37487 -27.33594,0.19336 -0.0462,-0.66722 -0.0678,-1.46519 -0.0762,-2.48047 -0.0138,-1.67607 0.47166,-6.94679 0.66992,-7.26757 0.12506,-0.20237 0.0244,-0.36719 -0.22461,-0.36719 -0.29049,0 -0.34503,-0.32406 -0.15234,-0.9043 0.16515,-0.4973 0.33912,-1.389 0.38671,-1.98047 0.0476,-0.59147 0.197,-1.25415 0.33204,-1.47265 0.13504,-0.2185 0.0495,-0.46132 -0.18946,-0.54102 -0.30327,-0.1011 -0.27624,-0.64809 0.0859,-1.80859 l 0.51758,-1.66211 1.01562,1.07031 c 1.08889,1.14754 1.46205,1.72498 2.82813,4.38477 0.48245,0.93935 1.02191,1.70703 1.19922,1.70703 0.1773,0 0.60245,-0.69974 0.94531,-1.55664 0.82192,-2.05418 0.52451,-5.26318 -0.55859,-6.02735 -0.42978,-0.30326 -0.78125,-0.85373 -0.78125,-1.22461 0,-0.37088 -0.21719,-0.89101 -0.48243,-1.15625 -0.8486,-0.84861 0.13423,-0.5191 2.15235,0.72266 1.07762,0.66307 2.31909,1.20508 2.75781,1.20508 0.51844,0 0.79688,0.27048 0.79688,0.77148 0,1.16657 0.42758,2.04297 0.99804,2.04297 0.28092,0 0.77657,0.39919 1.10157,0.88867 0.58457,0.88043 0.59503,0.87543 0.8496,-0.50195 0.14153,-0.76576 0.071,-2.38593 -0.15625,-3.60156 -0.22723,-1.21563 -0.46293,-2.52397 -0.52343,-2.90625 -0.13054,-0.82497 -0.56363,-1.31446 -1.16407,-1.31446 -0.23945,0 -0.51131,-0.22566 -0.60351,-0.50195 -0.10214,-0.30643 0.19978,-0.50195 0.77344,-0.50195 1.84288,0 3.70466,0.80898 5.98632,2.60156 1.27303,1.00016 2.40596,1.81836 2.51758,1.81836 0.11163,0 0.32368,-0.54737 0.47071,-1.2168 0.20977,-0.95509 0.007,-1.62645 -0.94336,-3.11523 -0.66637,-1.0435 -1.326,-2.357 -1.46485,-2.91992 -0.27866,-1.12971 -4.44885,-4.17637 -6.33398,-4.62696 -1.33943,-0.32017 -1.42526,-0.80085 -0.20117,-1.1289 1.47995,-0.39661 3.2135,-0.27758 4.92187,0.33789 2.41949,0.87164 3.12159,0.80018 2.81445,-0.28906 -0.58776,-2.08449 -1.13542,-3.11524 -1.65625,-3.11524 -0.30472,0 -0.55468,-0.27198 -0.55468,-0.60351 0,-0.33153 -0.18133,-0.62465 -0.40235,-0.65235 -0.73513,-0.0919 -0.9916,-0.17372 -2.82812,-0.89062 -1.44663,-0.56469 -2.06065,-0.62065 -2.96875,-0.27539 -1.54624,0.58788 -1.77633,0.24815 -0.25781,-0.38086 0.66282,-0.27455 1.31451,-0.8415 1.44726,-1.25977 0.13276,-0.41829 0.39755,-0.75976 0.58789,-0.75976 0.57786,0 1.63059,-1.24607 1.38672,-1.64063 -0.12558,-0.20321 -0.57881,-0.36914 -1.00781,-0.36914 -0.429,0 -0.73499,-0.21414 -0.67969,-0.47656 0.13506,-0.64154 -1.69139,-0.66584 -2.79102,-0.0371 -1.28604,0.73535 -1.71575,-0.20882 -0.53124,-1.16797 0.50851,-0.41177 0.85407,-0.79928 0.76757,-0.85937 -0.80388,-0.55935 -2.7905,-1.22485 -3.72461,-1.24805 -1.15726,-0.0287 -2.8095,1.27883 -4.15625,3.28711 -0.75883,1.13157 -1.94663,1.27402 -1.35156,0.16211 0.27502,-0.51396 0.25128,-0.88936 -0.0781,-1.21875 -0.26161,-0.26161 -0.48038,-1.41861 -0.48438,-2.57227 -0.005,-1.46052 -0.15998,-2.06805 -0.50976,-1.99805 -0.27626,0.0553 -0.50196,-0.25322 -0.50196,-0.6875 0,-1.13932 -1.23293,-1.6838 -2.4375,-1.07617 -0.81469,0.41095 -0.98128,0.79528 -0.98828,2.28516 -0.0114,2.23709 -0.56606,4.80469 -1.03906,4.80469 -0.19642,0 -0.35742,-0.26609 -0.35742,-0.58985 0,-0.32376 -0.34038,-0.76983 -0.75586,-0.99219 -0.41547,-0.22235 -1.04601,-1.13288 -1.40235,-2.02343 -0.60212,-1.50488 -1.45898,-2.19378 -1.45898,-1.17383 0,0.24462 -0.27198,0.33338 -0.60352,0.19922 -0.33154,-0.13415 -0.90369,-0.36365 -1.27148,-0.51172 -0.47878,-0.19276 -0.57753,-0.1227 -0.34961,0.24609 0.18242,0.29515 0.11048,0.64312 -0.16992,0.81641 -0.36773,0.22729 -0.27978,0.71583 0.35742,1.96484 0.98009,1.92115 0.80919,2.05206 -0.84961,0.65625 -0.65668,-0.55256 -1.40474,-1.0171 -1.66406,-1.0332 -2.88217,-0.1777 -3.47936,-0.12746 -3.32227,0.28125 0.0958,0.24934 0.002,0.62689 -0.20898,0.83789 -0.5341,0.53411 -0.10092,1.46517 0.90039,1.93359 0.74051,0.3464 3.42252,5.69271 3.04492,6.07032 -0.0744,0.0744 -0.93804,-0.93843 -1.91797,-2.25196 -1.67722,-2.24821 -1.88064,-2.38909 -3.47656,-2.40429 -1.29151,-0.0123 -1.64481,0.11668 -1.48047,0.54492 0.11864,0.30918 0.0105,0.68951 -0.24219,0.8457 -0.31481,0.19458 -0.17603,0.58678 0.44336,1.2461 l 0.9043,0.96289 -2.09766,0 c -1.90983,0 -2.16005,0.108 -2.7832,1.20312 -0.3765,0.66167 -0.966,1.20308 -1.31055,1.20508 -0.34454,0.001 -0.97722,0.28909 -1.40625,0.63867 -0.66615,0.5427 -0.6786,0.60287 -0.0781,0.41406 0.51606,-0.16225 0.70312,0.003 0.70312,0.61914 0,0.71492 0.0948,0.7639 0.62696,0.32227 0.51502,-0.42751 0.60335,-0.42217 0.50195,0.0312 -0.0905,0.40473 0.27658,0.52145 1.38476,0.43945 1.0759,-0.0797 1.57649,0.0693 1.75,0.52149 0.13375,0.3485 0.50714,0.63281 0.83008,0.63281 0.45899,0 0.40748,0.2556 -0.24218,1.16797 -1.03279,1.44994 -1.03828,1.63963 -0.0293,1.44531 1.1995,-0.231 0.98351,0.26486 -0.78125,1.78906 -0.87235,0.75345 -1.4876,1.52977 -1.36719,1.72461 0.12043,0.19484 -0.048,0.66034 -0.375,1.03321 -0.77279,0.88107 -1.26134,2.48437 -0.75586,2.48437 0.21524,0 0.29723,0.36264 0.18164,0.80469 -0.23716,0.90694 -0.006,0.98849 1.11524,0.38867 0.66216,-0.35437 0.78011,-0.28035 0.79101,0.50195 0.0124,0.89097 0.0292,0.89392 0.59766,0.14258 0.32222,-0.42591 0.71055,-0.64881 0.86328,-0.49609 0.15274,0.15273 0.74266,-0.15057 1.31055,-0.67383 1.16569,-1.07423 2.43945,-1.63391 2.43945,-1.07227 0,0.20548 -0.38015,0.72837 -0.8457,1.16211 -0.46553,0.43373 -0.72013,0.99421 -0.56446,1.2461 0.15567,0.25188 -0.0268,0.80149 -0.40625,1.2207 -0.71764,0.793 -0.56217,2.80469 0.2168,2.80469 0.21681,0 0.40628,0.67702 0.42188,1.50586 0.0164,0.87388 0.14435,1.25383 0.30273,0.90429 0.15023,-0.33153 0.63412,-0.66478 1.07617,-0.74218 1.04638,-0.18309 1.39339,-0.76975 1.40039,-2.3711 0.007,-1.47054 0.28262,-1.63128 1.03711,-0.60351 0.46401,0.63206 0.59571,0.51722 1.30274,-1.12891 0.69303,-1.61356 2.66219,-3.55265 3.13086,-3.08398 0.0937,0.0937 -0.0892,0.90414 -0.40625,1.80273 -0.31697,0.89858 -0.4712,1.73975 -0.3418,1.86914 0.12938,0.1294 0.003,0.94447 -0.2832,1.81055 -0.45243,1.37091 -0.42506,1.83961 0.21484,3.61914 0.6615,1.83959 1.51491,2.81391 1.34961,1.54102 -0.0358,-0.27629 -0.0439,-0.94074 -0.0176,-1.47657 l 0.0469,-0.97461 0.93554,0.87891 c 1.01671,0.95515 1.47342,0.7992 1.48242,-0.50391 0.007,-0.9992 0.64929,-2.12415 1.00782,-1.76562 0.13986,0.13985 0.30975,0.67849 0.37695,1.19531 0.0671,0.51682 0.2519,1.25578 0.41211,1.64258 0.16335,0.39435 0.11532,0.70312 -0.10938,0.70312 -0.25563,0 -0.33768,2.05349 -0.22851,5.66797 0.0942,3.1174 0.007,5.87569 -0.19336,6.12891 -0.0373,0.0472 -0.0974,0.19156 -0.14453,0.27539 l -22.07617,-0.24414 0,-2.5586 c 0,-3.97196 -2.99847,-9.3419 -6.36133,-11.39257 -8.53803,-5.20648 -19.78983,0.17432 -21.1211,10.09961 l -0.52148,3.88672 -10.76758,0 -10.76953,0 0,-3.46876 c 0,-2.40636 0.44979,-3.46679 1.4707,-3.46679 1.26164,0 1.5072,-4.13022 1.73243,-28.98242 z m 33.42187,8.7754 c -1.0556,0.0205 -1.76172,0.28402 -1.76172,0.85937 0,0.46987 0.26746,0.80469 0.64454,0.80469 0.82983,0 4.19628,2.26833 4.98046,3.35547 1.62482,2.25264 2.04829,5.59904 0.9375,7.4082 -1.86858,3.04333 -4.67422,4.66282 -7.65039,4.41601 -3.32796,-0.27598 -6.4097,-3.11998 -6.83789,-6.3125 -0.16671,-1.24281 -0.37484,-1.62003 -0.80468,-1.45507 -0.31892,0.12235 -0.72405,0.22265 -0.90235,0.22265 -0.65702,0 -0.001,5.36029 0.86914,7.10352 1.40575,2.81476 4.31675,5.14557 7.4961,6.00195 5.83375,1.57135 11.04434,-0.94869 13.62695,-6.58984 2.06808,-4.5173 1.04041,-10.18062 -2.37891,-13.10742 -1.88631,-1.61462 -5.89642,-2.75221 -8.21875,-2.70703 z m 81.10352,42.2539 c 12.1228,0 16.31282,16.7916 5.33398,21.37891 -4.49892,1.87976 -6.29082,1.77569 -10.18359,-0.59766 -3.89174,-2.37273 -6.50602,-7.91453 -5.625,-11.92578 0.85787,-3.90587 6.71321,-8.85547 10.47461,-8.85547 z m -82.32227,0.49414 c 4.52702,0 5.4498,0.37341 8.00781,3.23633 5.28204,5.91162 3.46853,14.70294 -3.64648,17.67578 -4.42545,1.84907 -6.23827,1.74123 -10.08398,-0.60351 -5.95115,-3.6284 -7.03818,-11.75272 -2.28516,-17.07227 2.55802,-2.86292 3.48078,-3.23633 8.00781,-3.23633 z"
         style="fill:#259bcd;fill-opacity:1" />
    </g>
  </g>
</svg>
